<svg width="25" height="27" viewBox="0 0 25 27" fill="none" xmlns="http://www.w3.org/2000/svg">
<path d="M2.1006 11.9454C1.8562 12.1557 1.64671 12.2608 0.669112 12.436C0.384531 12.4871 0 12.7222 0 13.0727C0 13.3205 0.304595 13.7444 0.669112 13.7444C1.08808 13.7444 1.92603 13.9547 2.5894 14.7608C3.88123 16.5833 5.44467 23.5103 6.21463 24.9888C6.55164 25.636 6.91878 26.0753 7.33775 26.0753C7.82655 26.0753 8.23099 25.2249 8.36904 24.9888C9.25864 23.4678 10.772 16.9212 11.8068 15.1055C12.1734 14.6148 12.9328 13.7036 13.5874 13.7036C14.4979 13.7036 15.0189 14.8601 15.2633 15.2807C15.7251 16.0753 16.7297 19.4864 17.1487 20.5028C17.3175 20.9124 17.6026 21.9047 18.0565 21.8696C18.4236 21.8413 18.5907 21.485 18.8246 21.0285C19.453 19.8018 20.1561 16.7821 21.0242 15.2573C21.8621 13.7853 22.927 13.6218 23.7126 13.6218C24.0355 13.6218 24.4166 13.2918 24.4166 13.0026C24.4166 12.8274 24.1665 12.436 23.7126 12.436C23.2587 12.436 22.7262 12.3251 22.0716 12.0097C20.6401 11.4139 19.8302 6.9349 19.1319 5.42786C18.9838 5.08091 18.5848 4.20571 18.0565 4.20571C17.6187 4.20571 17.1487 4.80505 16.9267 5.42786C16.5601 6.45668 15.8918 9.67311 15.1237 11.1101C14.857 11.609 14.2159 12.4068 13.5525 12.4068C12.9851 12.4068 12.374 12.0567 11.8068 10.8916C10.5915 8.83887 9.87565 2.75668 8.66034 0.981343C8.29534 0.207455 7.71534 0.00324448 7.37267 1.82469e-05C6.99237 -0.0035622 6.53089 0.520451 6.25541 0.981343C5.44953 2.3296 3.41032 10.8185 2.1006 11.9454Z" fill="black"/>
</svg>
